# xmcd CD database file
#
# Track frame offsets:
#	150
#	14545
#	29288
#	46944
#	62957
#	77254
#	91046
#	107262
#	121127
#	133538
#	152541
#	181180
#	192230
#
# Disc length: 2832 seconds
#
# Revision: 1
# Processed by: cddbd v1.5.2PL0 Copyright (c) Steve Scherf et al.
# Submitted via: jetAudio 7
#
DISCID=900b0e0d
DTITLE=The Nighthawks - The Nighthawks
DYEAR=1900
DGENRE=Blues
TTITLE0=Mainline
TTITLE1=Upside Your Head
TTITLE2=Every Night And Every Day
TTITLE3=Back To The City
TTITLE4=One Night Stand
TTITLE5=Pretty Girls And Cadillacs
TTITLE6=Brand New Man
TTITLE7=Little Sister
TTITLE8=Don't Go No Further
TTITLE9=Teen-age Letter
TTITLE10=I Wouldn't Treat A Dog(The Way You Treated Me)
TTITLE11=Ubangi Stomp
TTITLE12=Meet Me In The Bottom
EXTD=
EXTT0=
EXTT1=
EXTT2=
EXTT3=
EXTT4=
EXTT5=
EXTT6=
EXTT7=
EXTT8=
EXTT9=
EXTT10=
EXTT11=
EXTT12=
PLAYORDER=
